<svg width="24" height="24" viewBox="0 0 24 24" fill="none" xmlns="http://www.w3.org/2000/svg">
<rect width="24" height="24" rx="5" fill="#1E8572"/>
<path d="M6.1089 7.91585C6.55923 10.7309 9.03464 12.8838 12.0208 12.8838C14.9768 12.8838 17.4323 10.7743 17.9185 8.00111C17.9807 7.74074 18.0065 7.53279 17.9986 7.35463C17.9986 7.15052 17.8501 6.99207 17.6441 6.99207H17.31H6.78784H6.40275C6.19695 6.99207 6.04848 7.15028 6.04825 7.35417C6.04779 7.35416 6.04733 7.35414 6.04688 7.35412C6.04716 7.35868 6.04744 7.36324 6.04773 7.3678C6.04236 7.52298 6.06213 7.7008 6.1089 7.91585L6.1089 7.91585Z" fill="white"/>
<path d="M14.9595 16.5907C14.7343 15.1832 13.4966 14.1068 12.0035 14.1068C10.5255 14.1068 9.29776 15.1615 9.05467 16.5481C9.02355 16.6783 9.01067 16.7823 9.01461 16.8714C9.01461 16.9734 9.08888 17.0526 9.19186 17.0526H9.35891H14.62H14.8125C14.9154 17.0526 14.9897 16.9735 14.9898 16.8716C14.99 16.8716 14.9902 16.8716 14.9905 16.8716C14.9903 16.8693 14.9902 16.867 14.99 16.8648C14.9927 16.7872 14.9828 16.6983 14.9595 16.5907Z" fill="white"/>
</svg>
